<?xml version="1.0" encoding="utf-8" standalone="no"?>
<!DOCTYPE svg PUBLIC "-//W3C//DTD SVG 1.1//EN"
  "http://www.w3.org/Graphics/SVG/1.1/DTD/svg11.dtd">
<svg xmlns:xlink="http://www.w3.org/1999/xlink" width="437.45pt" height="308.278125pt" viewBox="0 0 437.45 308.278125" xmlns="http://www.w3.org/2000/svg" version="1.1">
 <metadata>
  <rdf:RDF xmlns:dc="http://purl.org/dc/elements/1.1/" xmlns:cc="http://creativecommons.org/ns#" xmlns:rdf="http://www.w3.org/1999/02/22-rdf-syntax-ns#">
   <cc:Work>
    <dc:type rdf:resource="http://purl.org/dc/dcmitype/StillImage"/>
    <dc:date>2024-11-12T09:09:25.255352</dc:date>
    <dc:format>image/svg+xml</dc:format>
    <dc:creator>
     <cc:Agent>
      <dc:title>Matplotlib v3.9.2, https://matplotlib.org/</dc:title>
     </cc:Agent>
    </dc:creator>
   </cc:Work>
  </rdf:RDF>
 </metadata>
 <defs>
  <style type="text/css">*{stroke-linejoin: round; stroke-linecap: butt}</style>
 </defs>
 <g id="figure_1">
  <g id="patch_1">
   <path d="M 0 308.278125 
L 437.45 308.278125 
L 437.45 0 
L 0 0 
z
" style="fill: #ffffff"/>
  </g>
  <g id="axes_1">
   <g id="patch_2">
    <path d="M 39.65 284.4 
L 430.25 284.4 
L 430.25 7.2 
L 39.65 7.2 
z
" style="fill: #ffffff"/>
   </g>
   <g id="matplotlib.axis_1">
    <g id="xtick_1">
     <g id="line2d_1">
      <path d="M 234.95 284.4 
L 234.95 7.2 
" clip-path="url(#p5cb6822957)" style="fill: none; stroke: #b0b0b0; stroke-width: 0.8; stroke-linecap: square"/>
     </g>
     <g id="line2d_2">
      <defs>
       <path id="m093f302155" d="M 0 0 
L 0 3.5 
" style="stroke: #000000; stroke-width: 0.8"/>
      </defs>
      <g>
       <use xlink:href="#m093f302155" x="234.95" y="284.4" style="stroke: #000000; stroke-width: 0.8"/>
      </g>
     </g>
     <g id="text_1">
      <!-- nm -->
      <g transform="translate(226.910938 298.998438) scale(0.1 -0.1)">
       <defs>
        <path id="DejaVuSans-6e" d="M 3513 2113 
L 3513 0 
L 2938 0 
L 2938 2094 
Q 2938 2591 2744 2837 
Q 2550 3084 2163 3084 
Q 1697 3084 1428 2787 
Q 1159 2491 1159 1978 
L 1159 0 
L 581 0 
L 581 3500 
L 1159 3500 
L 1159 2956 
Q 1366 3272 1645 3428 
Q 1925 3584 2291 3584 
Q 2894 3584 3203 3211 
Q 3513 2838 3513 2113 
z
" transform="scale(0.015625)"/>
        <path id="DejaVuSans-6d" d="M 3328 2828 
Q 3544 3216 3844 3400 
Q 4144 3584 4550 3584 
Q 5097 3584 5394 3201 
Q 5691 2819 5691 2113 
L 5691 0 
L 5113 0 
L 5113 2094 
Q 5113 2597 4934 2840 
Q 4756 3084 4391 3084 
Q 3944 3084 3684 2787 
Q 3425 2491 3425 1978 
L 3425 0 
L 2847 0 
L 2847 2094 
Q 2847 2600 2669 2842 
Q 2491 3084 2119 3084 
Q 1678 3084 1418 2786 
Q 1159 2488 1159 1978 
L 1159 0 
L 581 0 
L 581 3500 
L 1159 3500 
L 1159 2956 
Q 1356 3278 1631 3431 
Q 1906 3584 2284 3584 
Q 2666 3584 2933 3390 
Q 3200 3197 3328 2828 
z
" transform="scale(0.015625)"/>
       </defs>
       <use xlink:href="#DejaVuSans-6e"/>
       <use xlink:href="#DejaVuSans-6d" x="63.378906"/>
      </g>
     </g>
    </g>
   </g>
   <g id="matplotlib.axis_2">
    <g id="ytick_1">
     <g id="line2d_3">
      <path d="M 39.65 283.178148 
L 430.25 283.178148 
" clip-path="url(#p5cb6822957)" style="fill: none; stroke: #b0b0b0; stroke-width: 0.8; stroke-linecap: square"/>
     </g>
     <g id="line2d_4">
      <defs>
       <path id="m51010e8077" d="M 0 0 
L -3.5 0 
" style="stroke: #000000; stroke-width: 0.8"/>
      </defs>
      <g>
       <use xlink:href="#m51010e8077" x="39.65" y="283.178148" style="stroke: #000000; stroke-width: 0.8"/>
      </g>
     </g>
     <g id="text_2">
      <!-- 0 -->
      <g transform="translate(26.2875 286.977367) scale(0.1 -0.1)">
       <defs>
        <path id="DejaVuSans-30" d="M 2034 4250 
Q 1547 4250 1301 3770 
Q 1056 3291 1056 2328 
Q 1056 1369 1301 889 
Q 1547 409 2034 409 
Q 2525 409 2770 889 
Q 3016 1369 3016 2328 
Q 3016 3291 2770 3770 
Q 2525 4250 2034 4250 
z
M 2034 4750 
Q 2819 4750 3233 4129 
Q 3647 3509 3647 2328 
Q 3647 1150 3233 529 
Q 2819 -91 2034 -91 
Q 1250 -91 836 529 
Q 422 1150 422 2328 
Q 422 3509 836 4129 
Q 1250 4750 2034 4750 
z
" transform="scale(0.015625)"/>
       </defs>
       <use xlink:href="#DejaVuSans-30"/>
      </g>
     </g>
    </g>
    <g id="ytick_2">
     <g id="line2d_5">
      <path d="M 39.65 246.384241 
L 430.25 246.384241 
" clip-path="url(#p5cb6822957)" style="fill: none; stroke: #b0b0b0; stroke-width: 0.8; stroke-linecap: square"/>
     </g>
     <g id="line2d_6">
      <g>
       <use xlink:href="#m51010e8077" x="39.65" y="246.384241" style="stroke: #000000; stroke-width: 0.8"/>
      </g>
     </g>
     <g id="text_3">
      <!-- 250 -->
      <g transform="translate(13.5625 250.183459) scale(0.1 -0.1)">
       <defs>
        <path id="DejaVuSans-32" d="M 1228 531 
L 3431 531 
L 3431 0 
L 469 0 
L 469 531 
Q 828 903 1448 1529 
Q 2069 2156 2228 2338 
Q 2531 2678 2651 2914 
Q 2772 3150 2772 3378 
Q 2772 3750 2511 3984 
Q 2250 4219 1831 4219 
Q 1534 4219 1204 4116 
Q 875 4013 500 3803 
L 500 4441 
Q 881 4594 1212 4672 
Q 1544 4750 1819 4750 
Q 2544 4750 2975 4387 
Q 3406 4025 3406 3419 
Q 3406 3131 3298 2873 
Q 3191 2616 2906 2266 
Q 2828 2175 2409 1742 
Q 1991 1309 1228 531 
z
" transform="scale(0.015625)"/>
        <path id="DejaVuSans-35" d="M 691 4666 
L 3169 4666 
L 3169 4134 
L 1269 4134 
L 1269 2991 
Q 1406 3038 1543 3061 
Q 1681 3084 1819 3084 
Q 2600 3084 3056 2656 
Q 3513 2228 3513 1497 
Q 3513 744 3044 326 
Q 2575 -91 1722 -91 
Q 1428 -91 1123 -41 
Q 819 9 494 109 
L 494 744 
Q 775 591 1075 516 
Q 1375 441 1709 441 
Q 2250 441 2565 725 
Q 2881 1009 2881 1497 
Q 2881 1984 2565 2268 
Q 2250 2553 1709 2553 
Q 1456 2553 1204 2497 
Q 953 2441 691 2322 
L 691 4666 
z
" transform="scale(0.015625)"/>
       </defs>
       <use xlink:href="#DejaVuSans-32"/>
       <use xlink:href="#DejaVuSans-35" x="63.623047"/>
       <use xlink:href="#DejaVuSans-30" x="127.246094"/>
      </g>
     </g>
    </g>
    <g id="ytick_3">
     <g id="line2d_7">
      <path d="M 39.65 209.590333 
L 430.25 209.590333 
" clip-path="url(#p5cb6822957)" style="fill: none; stroke: #b0b0b0; stroke-width: 0.8; stroke-linecap: square"/>
     </g>
     <g id="line2d_8">
      <g>
       <use xlink:href="#m51010e8077" x="39.65" y="209.590333" style="stroke: #000000; stroke-width: 0.8"/>
      </g>
     </g>
     <g id="text_4">
      <!-- 500 -->
      <g transform="translate(13.5625 213.389552) scale(0.1 -0.1)">
       <use xlink:href="#DejaVuSans-35"/>
       <use xlink:href="#DejaVuSans-30" x="63.623047"/>
       <use xlink:href="#DejaVuSans-30" x="127.246094"/>
      </g>
     </g>
    </g>
    <g id="ytick_4">
     <g id="line2d_9">
      <path d="M 39.65 172.796426 
L 430.25 172.796426 
" clip-path="url(#p5cb6822957)" style="fill: none; stroke: #b0b0b0; stroke-width: 0.8; stroke-linecap: square"/>
     </g>
     <g id="line2d_10">
      <g>
       <use xlink:href="#m51010e8077" x="39.65" y="172.796426" style="stroke: #000000; stroke-width: 0.8"/>
      </g>
     </g>
     <g id="text_5">
      <!-- 750 -->
      <g transform="translate(13.5625 176.595644) scale(0.1 -0.1)">
       <defs>
        <path id="DejaVuSans-37" d="M 525 4666 
L 3525 4666 
L 3525 4397 
L 1831 0 
L 1172 0 
L 2766 4134 
L 525 4134 
L 525 4666 
z
" transform="scale(0.015625)"/>
       </defs>
       <use xlink:href="#DejaVuSans-37"/>
       <use xlink:href="#DejaVuSans-35" x="63.623047"/>
       <use xlink:href="#DejaVuSans-30" x="127.246094"/>
      </g>
     </g>
    </g>
    <g id="ytick_5">
     <g id="line2d_11">
      <path d="M 39.65 136.002518 
L 430.25 136.002518 
" clip-path="url(#p5cb6822957)" style="fill: none; stroke: #b0b0b0; stroke-width: 0.8; stroke-linecap: square"/>
     </g>
     <g id="line2d_12">
      <g>
       <use xlink:href="#m51010e8077" x="39.65" y="136.002518" style="stroke: #000000; stroke-width: 0.8"/>
      </g>
     </g>
     <g id="text_6">
      <!-- 1000 -->
      <g transform="translate(7.2 139.801737) scale(0.1 -0.1)">
       <defs>
        <path id="DejaVuSans-31" d="M 794 531 
L 1825 531 
L 1825 4091 
L 703 3866 
L 703 4441 
L 1819 4666 
L 2450 4666 
L 2450 531 
L 3481 531 
L 3481 0 
L 794 0 
L 794 531 
z
" transform="scale(0.015625)"/>
       </defs>
       <use xlink:href="#DejaVuSans-31"/>
       <use xlink:href="#DejaVuSans-30" x="63.623047"/>
       <use xlink:href="#DejaVuSans-30" x="127.246094"/>
       <use xlink:href="#DejaVuSans-30" x="190.869141"/>
      </g>
     </g>
    </g>
    <g id="ytick_6">
     <g id="line2d_13">
      <path d="M 39.65 99.208611 
L 430.25 99.208611 
" clip-path="url(#p5cb6822957)" style="fill: none; stroke: #b0b0b0; stroke-width: 0.8; stroke-linecap: square"/>
     </g>
     <g id="line2d_14">
      <g>
       <use xlink:href="#m51010e8077" x="39.65" y="99.208611" style="stroke: #000000; stroke-width: 0.8"/>
      </g>
     </g>
     <g id="text_7">
      <!-- 1250 -->
      <g transform="translate(7.2 103.00783) scale(0.1 -0.1)">
       <use xlink:href="#DejaVuSans-31"/>
       <use xlink:href="#DejaVuSans-32" x="63.623047"/>
       <use xlink:href="#DejaVuSans-35" x="127.246094"/>
       <use xlink:href="#DejaVuSans-30" x="190.869141"/>
      </g>
     </g>
    </g>
    <g id="ytick_7">
     <g id="line2d_15">
      <path d="M 39.65 62.414704 
L 430.25 62.414704 
" clip-path="url(#p5cb6822957)" style="fill: none; stroke: #b0b0b0; stroke-width: 0.8; stroke-linecap: square"/>
     </g>
     <g id="line2d_16">
      <g>
       <use xlink:href="#m51010e8077" x="39.65" y="62.414704" style="stroke: #000000; stroke-width: 0.8"/>
      </g>
     </g>
     <g id="text_8">
      <!-- 1500 -->
      <g transform="translate(7.2 66.213922) scale(0.1 -0.1)">
       <use xlink:href="#DejaVuSans-31"/>
       <use xlink:href="#DejaVuSans-35" x="63.623047"/>
       <use xlink:href="#DejaVuSans-30" x="127.246094"/>
       <use xlink:href="#DejaVuSans-30" x="190.869141"/>
      </g>
     </g>
    </g>
    <g id="ytick_8">
     <g id="line2d_17">
      <path d="M 39.65 25.620796 
L 430.25 25.620796 
" clip-path="url(#p5cb6822957)" style="fill: none; stroke: #b0b0b0; stroke-width: 0.8; stroke-linecap: square"/>
     </g>
     <g id="line2d_18">
      <g>
       <use xlink:href="#m51010e8077" x="39.65" y="25.620796" style="stroke: #000000; stroke-width: 0.8"/>
      </g>
     </g>
     <g id="text_9">
      <!-- 1750 -->
      <g transform="translate(7.2 29.420015) scale(0.1 -0.1)">
       <use xlink:href="#DejaVuSans-31"/>
       <use xlink:href="#DejaVuSans-37" x="63.623047"/>
       <use xlink:href="#DejaVuSans-35" x="127.246094"/>
       <use xlink:href="#DejaVuSans-30" x="190.869141"/>
      </g>
     </g>
    </g>
   </g>
   <g id="line2d_19">
    <path d="M 205.655 225.787011 
L 264.245 225.787011 
L 264.245 180.084563 
L 205.655 180.084563 
L 205.655 225.787011 
" clip-path="url(#p5cb6822957)" style="fill: none; stroke: #1f77b4; stroke-linecap: square"/>
   </g>
   <g id="line2d_20">
    <path d="M 234.95 225.787011 
L 234.95 271.8 
" clip-path="url(#p5cb6822957)" style="fill: none; stroke: #1f77b4; stroke-linecap: square"/>
   </g>
   <g id="line2d_21">
    <path d="M 234.95 180.084563 
L 234.95 111.608158 
" clip-path="url(#p5cb6822957)" style="fill: none; stroke: #1f77b4; stroke-linecap: square"/>
   </g>
   <g id="line2d_22">
    <path d="M 220.3025 271.8 
L 249.5975 271.8 
" clip-path="url(#p5cb6822957)" style="fill: none; stroke: #000000; stroke-linecap: square"/>
   </g>
   <g id="line2d_23">
    <path d="M 220.3025 111.608158 
L 249.5975 111.608158 
" clip-path="url(#p5cb6822957)" style="fill: none; stroke: #000000; stroke-linecap: square"/>
   </g>
   <g id="line2d_24">
    <defs>
     <path id="m0cc95663ef" d="M 0 3 
C 0.795609 3 1.55874 2.683901 2.12132 2.12132 
C 2.683901 1.55874 3 0.795609 3 0 
C 3 -0.795609 2.683901 -1.55874 2.12132 -2.12132 
C 1.55874 -2.683901 0.795609 -3 0 -3 
C -0.795609 -3 -1.55874 -2.683901 -2.12132 -2.12132 
C -2.683901 -1.55874 -3 -0.795609 -3 0 
C -3 0.795609 -2.683901 1.55874 -2.12132 2.12132 
C -1.55874 2.683901 -0.795609 3 0 3 
z
" style="stroke: #000000"/>
    </defs>
    <g clip-path="url(#p5cb6822957)">
     <use xlink:href="#m0cc95663ef" x="234.95" y="83.713961" style="fill-opacity: 0; stroke: #000000"/>
     <use xlink:href="#m0cc95663ef" x="234.95" y="25.745895" style="fill-opacity: 0; stroke: #000000"/>
     <use xlink:href="#m0cc95663ef" x="234.95" y="104.04333" style="fill-opacity: 0; stroke: #000000"/>
     <use xlink:href="#m0cc95663ef" x="234.95" y="93.545293" style="fill-opacity: 0; stroke: #000000"/>
     <use xlink:href="#m0cc95663ef" x="234.95" y="107.226739" style="fill-opacity: 0; stroke: #000000"/>
     <use xlink:href="#m0cc95663ef" x="234.95" y="101.213143" style="fill-opacity: 0; stroke: #000000"/>
     <use xlink:href="#m0cc95663ef" x="234.95" y="85.268135" style="fill-opacity: 0; stroke: #000000"/>
     <use xlink:href="#m0cc95663ef" x="234.95" y="19.8" style="fill-opacity: 0; stroke: #000000"/>
     <use xlink:href="#m0cc95663ef" x="234.95" y="104.066878" style="fill-opacity: 0; stroke: #000000"/>
     <use xlink:href="#m0cc95663ef" x="234.95" y="90.534079" style="fill-opacity: 0; stroke: #000000"/>
     <use xlink:href="#m0cc95663ef" x="234.95" y="110.402789" style="fill-opacity: 0; stroke: #000000"/>
     <use xlink:href="#m0cc95663ef" x="234.95" y="92.041158" style="fill-opacity: 0; stroke: #000000"/>
     <use xlink:href="#m0cc95663ef" x="234.95" y="101.857772" style="fill-opacity: 0; stroke: #000000"/>
     <use xlink:href="#m0cc95663ef" x="234.95" y="50.877606" style="fill-opacity: 0; stroke: #000000"/>
     <use xlink:href="#m0cc95663ef" x="234.95" y="96.846442" style="fill-opacity: 0; stroke: #000000"/>
     <use xlink:href="#m0cc95663ef" x="234.95" y="38.638481" style="fill-opacity: 0; stroke: #000000"/>
     <use xlink:href="#m0cc95663ef" x="234.95" y="69.34226" style="fill-opacity: 0; stroke: #000000"/>
     <use xlink:href="#m0cc95663ef" x="234.95" y="79.32224" style="fill-opacity: 0; stroke: #000000"/>
     <use xlink:href="#m0cc95663ef" x="234.95" y="56.758744" style="fill-opacity: 0; stroke: #000000"/>
     <use xlink:href="#m0cc95663ef" x="234.95" y="67.169948" style="fill-opacity: 0; stroke: #000000"/>
     <use xlink:href="#m0cc95663ef" x="234.95" y="61.581689" style="fill-opacity: 0; stroke: #000000"/>
     <use xlink:href="#m0cc95663ef" x="234.95" y="101.070383" style="fill-opacity: 0; stroke: #000000"/>
     <use xlink:href="#m0cc95663ef" x="234.95" y="74.636168" style="fill-opacity: 0; stroke: #000000"/>
     <use xlink:href="#m0cc95663ef" x="234.95" y="42.983105" style="fill-opacity: 0; stroke: #000000"/>
     <use xlink:href="#m0cc95663ef" x="234.95" y="106.861744" style="fill-opacity: 0; stroke: #000000"/>
     <use xlink:href="#m0cc95663ef" x="234.95" y="68.71382" style="fill-opacity: 0; stroke: #000000"/>
     <use xlink:href="#m0cc95663ef" x="234.95" y="57.42545" style="fill-opacity: 0; stroke: #000000"/>
     <use xlink:href="#m0cc95663ef" x="234.95" y="98.812708" style="fill-opacity: 0; stroke: #000000"/>
     <use xlink:href="#m0cc95663ef" x="234.95" y="102.575989" style="fill-opacity: 0; stroke: #000000"/>
     <use xlink:href="#m0cc95663ef" x="234.95" y="110.104023" style="fill-opacity: 0; stroke: #000000"/>
     <use xlink:href="#m0cc95663ef" x="234.95" y="51.272037" style="fill-opacity: 0; stroke: #000000"/>
     <use xlink:href="#m0cc95663ef" x="234.95" y="57.55938" style="fill-opacity: 0; stroke: #000000"/>
     <use xlink:href="#m0cc95663ef" x="234.95" y="80.00072" style="fill-opacity: 0; stroke: #000000"/>
     <use xlink:href="#m0cc95663ef" x="234.95" y="64.95054" style="fill-opacity: 0; stroke: #000000"/>
     <use xlink:href="#m0cc95663ef" x="234.95" y="85.643433" style="fill-opacity: 0; stroke: #000000"/>
     <use xlink:href="#m0cc95663ef" x="234.95" y="68.376788" style="fill-opacity: 0; stroke: #000000"/>
     <use xlink:href="#m0cc95663ef" x="234.95" y="107.091338" style="fill-opacity: 0; stroke: #000000"/>
     <use xlink:href="#m0cc95663ef" x="234.95" y="89.734916" style="fill-opacity: 0; stroke: #000000"/>
     <use xlink:href="#m0cc95663ef" x="234.95" y="108.82801" style="fill-opacity: 0; stroke: #000000"/>
     <use xlink:href="#m0cc95663ef" x="234.95" y="110.492566" style="fill-opacity: 0; stroke: #000000"/>
     <use xlink:href="#m0cc95663ef" x="234.95" y="105.036766" style="fill-opacity: 0; stroke: #000000"/>
     <use xlink:href="#m0cc95663ef" x="234.95" y="59.588931" style="fill-opacity: 0; stroke: #000000"/>
     <use xlink:href="#m0cc95663ef" x="234.95" y="95.050899" style="fill-opacity: 0; stroke: #000000"/>
     <use xlink:href="#m0cc95663ef" x="234.95" y="87.525809" style="fill-opacity: 0; stroke: #000000"/>
     <use xlink:href="#m0cc95663ef" x="234.95" y="58.396809" style="fill-opacity: 0; stroke: #000000"/>
     <use xlink:href="#m0cc95663ef" x="234.95" y="104.389193" style="fill-opacity: 0; stroke: #000000"/>
     <use xlink:href="#m0cc95663ef" x="234.95" y="95.050899" style="fill-opacity: 0; stroke: #000000"/>
    </g>
   </g>
   <g id="line2d_25">
    <path d="M 205.655 204.542209 
L 264.245 204.542209 
" clip-path="url(#p5cb6822957)" style="fill: none; stroke: #2ca02c"/>
   </g>
   <g id="patch_3">
    <path d="M 39.65 284.4 
L 39.65 7.2 
" style="fill: none; stroke: #000000; stroke-width: 0.8; stroke-linejoin: miter; stroke-linecap: square"/>
   </g>
   <g id="patch_4">
    <path d="M 430.25 284.4 
L 430.25 7.2 
" style="fill: none; stroke: #000000; stroke-width: 0.8; stroke-linejoin: miter; stroke-linecap: square"/>
   </g>
   <g id="patch_5">
    <path d="M 39.65 284.4 
L 430.25 284.4 
" style="fill: none; stroke: #000000; stroke-width: 0.8; stroke-linejoin: miter; stroke-linecap: square"/>
   </g>
   <g id="patch_6">
    <path d="M 39.65 7.2 
L 430.25 7.2 
" style="fill: none; stroke: #000000; stroke-width: 0.8; stroke-linejoin: miter; stroke-linecap: square"/>
   </g>
  </g>
 </g>
 <defs>
  <clipPath id="p5cb6822957">
   <rect x="39.65" y="7.2" width="390.6" height="277.2"/>
  </clipPath>
 </defs>
</svg>
